# xmcd
# 
# Track frame offsets:
#     150
#     17587
#     31715
#     71095
#     92855
#     109457
#     136150
#     158067
#     174400
#     194245
#     211617
#     231340
# 
# Disc length: 3312
# 
# Revision: 4
# Processed by: cddbd v1.5.2PL0 Copyright (c) Steve Scherf et al.
# Submitted via: BonkEnc v1.0.8
# 
DISCID=a10cee0c
DTITLE=Cuby and Blizzards - hotel grolloo
DYEAR=2000
DGENRE=Blues
TTITLE0=another day, another road
TTITLE1=appleknockers flophouse
TTITLE2=last minute flight
TTITLE3=nobody in town
TTITLE4=just for fun
TTITLE5=somebody will know someday
TTITLE6=wondering where thew indians have gone
TTITLE7=window of my eyes
TTITLE8=liquor blues
TTITLE9=going home
TTITLE10=so many roads
TTITLE11=once in a lifetime
EXTD=
EXTT0=
EXTT1=
EXTT2=
EXTT3=
EXTT4=
EXTT5=
EXTT6=
EXTT7=
EXTT8=
EXTT9=
EXTT10=
EXTT11=
PLAYORDER=
